<?xml version="1.0" standalone="no"?>
<!DOCTYPE svg PUBLIC "-//W3C//DTD SVG 20010904//EN"
 "http://www.w3.org/TR/2001/REC-SVG-20010904/DTD/svg10.dtd">
<svg version="1.0" xmlns="http://www.w3.org/2000/svg"
 width="700.000000pt" height="700.000000pt" viewBox="0 0 700.000000 700.000000"
 preserveAspectRatio="xMidYMid meet">
<metadata>
Created by potrace 1.14, written by Peter Selinger 2001-2017
</metadata>
<g transform="translate(0.000000,700.000000) scale(0.100000,-0.100000)"
fill="#000000" stroke="none">
<path d="M2036 5278 c-5 -22 -426 -3534 -426 -3550 0 -5 113 -8 250 -8 138 0
250 2 250 3 0 12 361 3028 365 3055 l6 32 73 0 72 0 154 -912 c84 -502 155
-919 158 -925 3 -10 113 -13 503 -13 l498 0 6 33 c5 30 225 1799 225 1811 0 9
150 7 150 -1 1 -5 114 -699 253 -1543 l253 -1535 249 0 c244 0 250 0 248 20
-4 31 -573 3496 -579 3528 l-6 27 -504 0 c-277 0 -504 -2 -504 -5 0 -12 -220
-1772 -225 -1803 l-6 -33 -71 3 -72 3 -157 915 c-87 503 -158 916 -158 918 -1
1 -226 2 -501 2 l-500 0 -4 -22z"/>
<path d="M5810 1970 l0 -250 248 2 247 3 0 245 0 245 -247 3 -248 2 0 -250z"/>
</g>
</svg>
